<svg width="250" height="45" viewBox="0 0 250 45" fill="none" xmlns="http://www.w3.org/2000/svg">
<path d="M117.483 31.4672C112.918 31.4672 109.853 28.6838 107.315 23.8286L97.1961 2.18606C95.9738 -0.225954 97.6202 0.111036 99.1076 0.0455089C100.978 -0.0387398 101.973 -0.135469 102.64 1.05025L111.901 20.986C113.46 23.9566 115.593 26.3966 117.545 26.3966C119.781 26.3966 121.437 23.3918 122.475 21.4041L131.858 1.23123C132.684 -0.0356233 133.694 0.0455089 135.175 0.0455089C137.084 0.0455089 138.584 0.0455109 137.67 1.79289L127.093 24.1438C127.078 24.1718 127.065 24.1968 127.053 24.2249C123.75 30.5279 119.853 31.4672 117.483 31.4672Z" fill="white"/>
<path d="M166.42 0.0267944C157.973 0.0267944 151.1 7.06936 151.1 15.7314C151.1 24.3934 157.96 31.4422 166.42 31.4422C174.879 31.4422 181.749 24.3653 181.749 15.7189C181.749 7.07249 174.867 0.0267944 166.42 0.0267944ZM166.42 28.8711C159.335 28.8711 153.573 22.9768 153.573 15.7314C153.573 8.48599 159.335 2.5917 166.42 2.5917C173.504 2.5917 179.254 8.47351 179.254 15.7189C179.254 22.9643 173.501 28.8586 166.42 28.8586V28.8711Z" fill="white"/>
<path d="M144.589 31.4672C143.005 31.4672 141.72 31.4672 141.72 28.5216V2.98799C141.72 0.0455298 143.005 0.0455322 144.589 0.0455322C146.173 0.0455322 147.455 0.0455298 147.455 2.98799V28.5216C147.449 31.4672 146.173 31.4672 144.589 31.4672Z" fill="white"/>
<path d="M104.446 30.2565L94.9512 9.84332C94.7579 9.37528 94.5448 8.91763 94.312 8.47038C92.7384 5.46647 90.2359 3.05253 87.1784 1.58908C84.1208 0.125621 80.6722 -0.308825 77.3476 0.350611C74.0229 1.01005 71.0007 2.72798 68.7321 5.24787C66.4635 7.76775 65.0704 10.9544 64.7608 14.3318C64.4511 17.7093 65.2416 21.0964 67.0141 23.9873C68.7866 26.8782 71.446 29.1177 74.5953 30.3715C77.7445 31.6253 81.2145 31.826 84.4871 30.9437C87.7597 30.0614 90.6593 28.1434 92.7529 25.4761C93.4826 24.1126 93.3017 22.2279 91.3279 21.3417C89.3541 20.4555 87.6454 22.4931 87.6454 22.4931C86.5277 23.692 85.1297 24.5939 83.577 25.1175C82.0244 25.6412 80.366 25.7702 78.7512 25.4929C77.1364 25.2155 75.6159 24.5407 74.3265 23.529C73.0372 22.5173 72.0196 21.2005 71.3654 19.6973C70.7112 18.1942 70.4408 16.5518 70.5787 14.918C70.7166 13.2843 71.2585 11.7105 72.1554 10.3385C73.0524 8.96643 74.2763 7.83918 75.7169 7.05825C77.1575 6.27732 78.7697 5.86723 80.4081 5.86491C84.1499 5.86491 87.5799 8.26756 89.2575 11.3567L94.1592 21.6693L94.5583 22.5587C94.5567 22.5504 94.5567 22.5419 94.5583 22.5337L98.3001 30.4187C98.4496 30.7323 98.6847 30.9972 98.9783 31.1827C99.2718 31.3682 99.6118 31.4669 99.959 31.4672H103.654C103.799 31.4706 103.942 31.437 104.07 31.3696C104.198 31.3023 104.307 31.2033 104.386 31.0821C104.466 30.9609 104.513 30.8215 104.523 30.6771C104.534 30.5326 104.507 30.3878 104.446 30.2565Z" fill="white"/>
<path d="M249.216 17.0887C249.2 17.1089 249.182 17.1277 249.163 17.1449C248.851 17.4382 247.782 18.1528 245.421 18.1528H245.359L226.154 18.1247H224.779C224.583 18.124 224.391 18.065 224.227 17.9552C224.064 17.8454 223.937 17.6897 223.863 17.5077C223.788 17.3257 223.769 17.1257 223.808 16.9328C223.846 16.74 223.941 16.5629 224.081 16.4241C224.172 16.3325 224.281 16.26 224.401 16.2107C224.521 16.1614 224.65 16.1364 224.779 16.137H225.213L245.337 16.162H245.49C247.454 16.162 247.9 14.9139 247.985 14.399C248.054 13.9189 248.004 13.429 247.838 12.973C246.921 8.40486 243.27 4.36404 238.745 2.91309L238.527 2.83821C238.131 2.70116 237.727 2.58861 237.317 2.50121C236.539 2.34595 235.747 2.26861 234.954 2.27031C232.573 2.27961 230.239 2.93558 228.202 4.1682C226.165 5.40083 224.5 7.16387 223.385 9.26919C223.096 9.8006 222.849 10.3547 222.649 10.9261C222.206 12.0227 221.931 13.1798 221.832 14.3584C221.355 22.4463 226.232 27.0394 230.953 28.6402C232.312 29.0854 233.733 29.3098 235.163 29.3048C237.632 29.3048 241.29 28.6183 244.879 25.4137L244.904 25.3981L245.119 25.2016C245.298 25.0362 245.522 24.9271 245.763 24.8877C246.004 24.8483 246.251 24.8804 246.473 24.98C246.696 25.0796 246.884 25.2424 247.016 25.4482C247.147 25.6539 247.215 25.8936 247.211 26.1377C247.211 26.2235 247.202 26.3092 247.186 26.3935C247.136 26.6133 247.029 26.8159 246.874 26.9802C246.861 26.9953 246.847 27.0089 246.831 27.0207C246.824 27.0323 246.814 27.0419 246.803 27.0488L246.781 27.0706L246.644 27.1955L246.354 27.4513H246.338C243.418 30.0288 239.655 31.4473 235.761 31.4391C233.91 31.4301 232.072 31.1354 230.311 30.5654C228.26 29.8861 226.374 28.7828 224.776 27.3271C223.179 25.8714 221.905 24.0958 221.037 22.1156C220.344 20.5537 219.908 18.8898 219.746 17.1886V17.1667V17.0825C219.746 17.0201 219.746 16.9577 219.746 16.8953V16.7642C219.573 14.222 220 11.6747 220.994 9.32848C222.172 6.55425 224.139 4.1877 226.65 2.52305C229.104 0.896017 231.982 0.0278429 234.926 0.0267944C235.873 0.0269599 236.818 0.11892 237.748 0.301384C240.757 0.887242 243.52 2.37099 245.671 4.5575C247.838 6.7757 249.301 9.58512 249.877 12.6329C250.142 14.0682 250.002 16.0871 249.216 17.0887Z" fill="white"/>
<path d="M215.736 15.5098V30.606C215.741 30.6568 215.741 30.708 215.736 30.7589C215.713 30.866 215.669 30.9674 215.606 31.057C215.542 31.1465 215.462 31.2223 215.368 31.2799C215.243 31.3551 215.1 31.395 214.954 31.3954H214.165C214.019 31.3946 213.876 31.3547 213.75 31.2799C213.652 31.22 213.568 31.1396 213.504 31.0443C213.44 30.949 213.398 30.841 213.379 30.7277C213.374 30.6831 213.374 30.6381 213.379 30.5935V15.4911C213.379 8.31437 207.676 2.49497 200.669 2.49497C193.663 2.49497 187.963 8.32685 187.963 15.4911V30.606C187.969 30.6505 187.969 30.6956 187.963 30.7401C187.944 30.8512 187.901 30.957 187.838 31.0505C187.775 31.1441 187.694 31.2233 187.598 31.2831C187.472 31.3578 187.329 31.3977 187.183 31.3985H186.394C186.248 31.3977 186.105 31.3578 185.98 31.2831C185.883 31.2238 185.8 31.1448 185.736 31.0513C185.672 30.9577 185.629 30.8517 185.609 30.7401C185.604 30.6955 185.604 30.6506 185.609 30.606V15.5036C185.609 6.96952 192.375 0.0267944 200.701 0.0267944C209.026 0.0267944 215.736 6.97575 215.736 15.5098Z" fill="white"/>
<path fill-rule="evenodd" clip-rule="evenodd" d="M54.839 42.123C54.1312 40.5629 52.8652 37.4207 51.7645 34.9463C51.3685 35.4674 51.1876 35.8543 50.5172 36.1071C48.8397 36.7311 47.1434 36.4191 45.6997 33.7762C44.4867 31.5046 43.7851 30.2814 43.0087 29.0707C42.5877 29.804 41.6647 30.9429 41.197 31.6793L46.1393 42.7034C46.2602 42.9806 46.4589 43.2166 46.7114 43.3828C46.9638 43.549 47.259 43.6382 47.5612 43.6395H53.8693C54.0489 43.6408 54.226 43.5964 54.3839 43.5107C54.5418 43.4249 54.6754 43.3005 54.7723 43.149C54.8691 42.9976 54.926 42.8241 54.9377 42.6446C54.9494 42.4652 54.9154 42.2858 54.839 42.123Z" fill="white"/>
<path fill-rule="evenodd" clip-rule="evenodd" d="M47.7576 33.8167C46.5104 31.7168 45.3598 29.2829 43.7414 27.3982C43.4192 27.016 43.0713 26.6564 42.7 26.3217C37.6298 34.5812 32.0639 42.8594 21.5588 43.5958C21.0287 43.6333 20.4955 43.6302 19.9623 43.6208C17.855 43.5603 15.7722 43.1523 13.7977 42.4132C11.8853 41.6694 10.0839 40.6668 8.44376 39.4333C6.90338 38.2975 5.70288 36.9371 4.39013 35.2864C4.12509 34.9432 3.87564 34.5469 3.62306 34.1912C3.13216 33.4684 2.69746 32.709 2.32279 31.9196C1.68871 30.6168 1.17417 29.2591 0.785531 27.8632C0.345433 26.2707 0.0860274 24.6336 0.0122243 22.983C-0.0864155 19.9601 0.412692 16.9475 1.48088 14.1181C1.98517 12.7178 2.64406 11.3782 3.44533 10.1241C4.7466 8.1067 6.35166 6.30267 8.20366 4.7759C11.7864 1.83149 16.2448 0.161029 20.879 0.0267639C31.5806 -0.285268 38.4499 5.89609 41.7021 13.154C41.8393 13.466 42.1231 14.0557 42.5129 14.8577L41.5026 16.1807H34.2372C29.9155 9.55935 23.545 6.45775 15.9679 9.73097C8.59654 12.9168 4.92646 23.6601 12.2916 31.3704C12.5077 31.6065 12.7356 31.8314 12.9745 32.0444C13.0088 32.0756 13.0493 32.113 13.0898 32.1442C15.5282 34.3534 19.7845 36.7717 26.3389 35.0898C27.0068 34.8761 27.6456 34.5805 28.241 34.2099C29.8469 33.3206 32.2634 31.3455 33.3517 29.8914L38.3127 23.2545C35.7028 21.8846 32.4069 21.6756 29.507 21.1545C27.2089 20.8612 27.8388 17.4787 30.2553 17.8438H42.3133L45.3005 13.9247C47.9915 10.4018 51.8487 12.1991 49.139 16.5988L46.3856 20.5928L46.342 20.6615L50.5952 31.9508C51.7863 34.082 48.8459 35.8637 47.7576 33.8167Z" fill="white"/>
<path d="M162.787 43.5896C162.471 43.5945 162.158 43.5295 161.87 43.3992C161.594 43.2762 161.362 43.0729 161.203 42.8158C161.044 42.5588 160.965 42.2597 160.978 41.9577C160.97 41.6971 161.036 41.4396 161.169 41.215C161.288 41.0266 161.453 40.8719 161.649 40.7657C161.859 40.6558 162.082 40.574 162.313 40.5223C162.556 40.4693 162.803 40.4256 163.049 40.3944C163.361 40.3507 163.632 40.3195 163.835 40.2976C163.987 40.2886 164.136 40.2505 164.274 40.1853C164.321 40.1577 164.36 40.1171 164.384 40.0685C164.409 40.0198 164.42 39.9651 164.415 39.9107V39.8826C164.423 39.7383 164.403 39.5937 164.355 39.4571C164.308 39.3206 164.233 39.1948 164.137 39.087C164.023 38.9854 163.89 38.9079 163.745 38.8591C163.6 38.8103 163.447 38.7913 163.295 38.803C162.971 38.7851 162.65 38.875 162.382 39.0589C162.185 39.2011 162.024 39.3883 161.914 39.6049L161.141 39.3304C161.259 39.0356 161.45 38.7758 161.696 38.5752C161.92 38.3967 162.179 38.267 162.456 38.1945C162.721 38.1236 162.993 38.0869 163.267 38.0853C163.465 38.0874 163.662 38.1072 163.857 38.1446C164.085 38.1876 164.303 38.2711 164.502 38.3911C164.724 38.5285 164.904 38.7238 165.023 38.9559C165.172 39.2712 165.24 39.6186 165.222 39.9669V43.4648H164.408V42.7471H164.368C164.296 42.8843 164.203 43.0087 164.09 43.1153C163.942 43.2598 163.767 43.3742 163.576 43.4523C163.325 43.5505 163.056 43.5972 162.787 43.5896ZM162.912 42.8563C163.196 42.866 163.478 42.8003 163.729 42.666C163.938 42.5523 164.112 42.3827 164.231 42.1761C164.342 41.9868 164.401 41.7715 164.402 41.552V40.8063C164.339 40.8637 164.261 40.9026 164.178 40.9186C164.045 40.9554 163.911 40.9846 163.775 41.006C163.626 41.0309 163.464 41.0497 163.339 41.0684L162.993 41.112C162.792 41.1378 162.593 41.1817 162.4 41.2431C162.233 41.2956 162.081 41.3901 161.961 41.5177C161.843 41.654 161.782 41.8307 161.792 42.0107C161.785 42.1351 161.81 42.2592 161.865 42.3711C161.92 42.4831 162.002 42.5792 162.104 42.6504C162.346 42.7991 162.628 42.8709 162.912 42.8563Z" fill="white"/>
<path d="M166.709 43.4648V38.1603H168.892C169.376 38.1348 169.854 38.2709 170.252 38.5472C170.413 38.664 170.543 38.8182 170.631 38.9965C170.719 39.1748 170.762 39.3718 170.757 39.5706C170.765 39.7087 170.743 39.8468 170.694 39.9759C170.644 40.105 170.568 40.2221 170.47 40.3195C170.262 40.5029 170.007 40.6259 169.734 40.6752C169.937 40.705 170.131 40.7761 170.305 40.8843C170.493 40.9958 170.651 41.151 170.766 41.3367C170.891 41.5569 170.954 41.8064 170.95 42.0594C170.945 42.3123 170.873 42.5595 170.741 42.7752C170.595 42.9959 170.39 43.1711 170.149 43.2807C169.855 43.4136 169.535 43.4776 169.213 43.4679L166.709 43.4648ZM167.483 40.3819H168.88C169.071 40.3875 169.261 40.3568 169.441 40.2914C169.583 40.2392 169.709 40.1485 169.803 40.0293C169.887 39.9113 169.931 39.7689 169.927 39.6237C169.931 39.5188 169.907 39.4149 169.858 39.3223C169.809 39.2297 169.736 39.1518 169.647 39.0963C169.417 38.9554 169.149 38.8879 168.88 38.9029H167.483V40.3819ZM167.483 42.719H169.21C169.446 42.7334 169.68 42.6625 169.868 42.5193C169.948 42.4532 170.011 42.3694 170.053 42.2746C170.094 42.1799 170.113 42.0767 170.108 41.9733C170.115 41.8544 170.097 41.7354 170.056 41.6237C170.015 41.512 169.951 41.41 169.868 41.3242C169.78 41.2421 169.677 41.1787 169.564 41.1379C169.45 41.0972 169.33 41.0799 169.21 41.0871H167.483V42.719Z" fill="white"/>
<path d="M172.98 42.2634L175.537 38.1571H176.472V43.4617H175.659V39.3584L173.117 43.4648H172.163V38.1602H172.977L172.98 42.2634Z" fill="white"/>
<path d="M179.528 43.5896C179.219 43.5923 178.912 43.5273 178.63 43.3993C178.353 43.2771 178.12 43.0741 177.96 42.8169C177.801 42.5597 177.722 42.2602 177.735 41.9577C177.724 41.6994 177.786 41.4432 177.913 41.2182C178.032 41.0298 178.197 40.8751 178.393 40.7689C178.604 40.6595 178.829 40.5777 179.061 40.5255C179.301 40.4724 179.547 40.4288 179.793 40.3975C180.105 40.3539 180.376 40.3227 180.579 40.3008C180.733 40.2922 180.883 40.254 181.022 40.1885C181.069 40.1608 181.107 40.1203 181.132 40.0717C181.157 40.023 181.167 39.9683 181.162 39.9139V39.8858C181.171 39.7412 181.15 39.5962 181.102 39.4596C181.054 39.3229 180.979 39.1973 180.882 39.0901C180.768 38.9888 180.635 38.9115 180.491 38.8627C180.347 38.8139 180.194 38.7947 180.043 38.8062C179.717 38.7885 179.395 38.8784 179.126 39.062C178.93 39.2044 178.771 39.3916 178.661 39.6081L177.885 39.3335C178.004 39.0384 178.196 38.7786 178.443 38.5784C178.667 38.4005 178.925 38.2709 179.201 38.1977C179.466 38.1266 179.74 38.0899 180.015 38.0885C180.213 38.0907 180.41 38.1105 180.604 38.1478C180.832 38.1918 181.05 38.2753 181.249 38.3943C181.47 38.5319 181.649 38.7272 181.767 38.9591C181.92 39.2721 181.992 39.6187 181.976 39.9669V43.4648H181.162V42.7471H181.119C181.047 42.8836 180.954 43.0079 180.844 43.1154C180.695 43.2585 180.52 43.3728 180.33 43.4523C180.075 43.5518 179.802 43.5985 179.528 43.5896ZM179.653 42.8564C179.937 42.866 180.219 42.8004 180.47 42.666C180.68 42.5516 180.854 42.3823 180.975 42.1761C181.085 41.9863 181.144 41.7714 181.147 41.5521V40.8063C181.082 40.8638 181.004 40.9026 180.919 40.9186C180.788 40.9558 180.655 40.985 180.52 41.006C180.367 41.031 180.208 41.0497 180.08 41.0684L179.737 41.1121C179.536 41.1379 179.338 41.1817 179.145 41.2432C178.976 41.2957 178.824 41.3901 178.702 41.5177C178.584 41.654 178.524 41.8308 178.534 42.0107C178.526 42.1352 178.551 42.2595 178.605 42.3716C178.66 42.4836 178.743 42.5797 178.845 42.6504C179.087 42.8002 179.369 42.8722 179.653 42.8564Z" fill="white"/>
<path d="M187.003 42.2634L189.559 38.1571H190.495V43.4617H189.678V39.3584L187.137 43.4648H186.201V38.1602H187.015L187.003 42.2634Z" fill="white"/>
<path d="M194.393 43.4648L196.547 40.7688L194.421 38.1571H195.387L197.155 40.4256H197.598V38.1571H198.412V40.4256H198.842L200.607 38.1571H201.577L199.463 40.7688L201.605 43.4648H200.623L198.827 41.1838H198.412V43.4648H197.598V41.1838H197.183L195.375 43.4648H194.393Z" fill="white"/>
<path d="M205.266 36.0571L202.983 44.5288H202.238L204.511 36.0571H205.266Z" fill="white"/>
<path d="M205.665 44.9875V42.7066H206.108C206.213 42.593 206.307 42.4697 206.388 42.3384C206.474 42.1908 206.542 42.0337 206.591 41.8703C206.658 41.6528 206.709 41.4307 206.744 41.2057C206.784 40.9467 206.822 40.6284 206.853 40.2696L207.034 38.1696H210.404V42.7191H211.218V45H210.404V43.4773H206.479V45L205.665 44.9875ZM207.034 42.7066H209.587V38.9185H207.791L207.654 40.2571C207.595 40.8125 207.526 41.2993 207.439 41.7143C207.378 42.0708 207.24 42.4096 207.034 42.7066Z" fill="white"/>
<path d="M218.967 36.1664L219.382 36.6656C219.225 36.8189 219.034 36.9314 218.824 36.9933C218.589 37.0593 218.347 37.097 218.103 37.1056L217.215 37.1493C216.89 37.1488 216.571 37.242 216.298 37.4176C216.046 37.5976 215.852 37.8469 215.74 38.1353C215.593 38.5039 215.508 38.8938 215.487 39.2898H215.556C215.721 38.9734 215.982 38.7169 216.301 38.5565C216.619 38.4003 216.969 38.3202 217.324 38.3225C217.716 38.3168 218.103 38.417 218.443 38.6127C218.784 38.8167 219.057 39.1162 219.229 39.4739C219.436 39.9131 219.536 40.3957 219.519 40.8812C219.532 41.3758 219.432 41.8668 219.226 42.3165C219.047 42.7024 218.76 43.0277 218.399 43.2526C218.02 43.4717 217.59 43.5871 217.152 43.5871C216.714 43.5871 216.284 43.4717 215.905 43.2526C215.532 43.0105 215.241 42.6599 215.072 42.2479C214.861 41.7263 214.76 41.1662 214.776 40.6035V40.0356C214.776 38.854 214.977 37.9574 215.378 37.3459C215.576 37.0486 215.847 36.8066 216.164 36.6429C216.482 36.4791 216.836 36.3989 217.193 36.4098C217.48 36.4098 217.732 36.4098 217.957 36.4098C218.152 36.415 218.347 36.4046 218.54 36.3786C218.7 36.3509 218.848 36.2771 218.967 36.1664ZM217.158 42.8439C217.453 42.8519 217.742 42.7667 217.985 42.6005C218.224 42.4298 218.409 42.1936 218.518 41.9203C218.649 41.5899 218.713 41.2366 218.705 40.8812C218.714 40.5418 218.651 40.2045 218.518 39.892C218.405 39.6356 218.218 39.4184 217.982 39.268C217.758 39.1446 217.51 39.0722 217.255 39.056C217 39.0399 216.744 39.0803 216.507 39.1744C216.319 39.2535 216.153 39.3753 216.02 39.5301C215.879 39.6988 215.773 39.894 215.708 40.1042C215.633 40.3553 215.594 40.6159 215.593 40.8781C215.568 41.3869 215.715 41.8895 216.011 42.3041C216.145 42.4798 216.319 42.6206 216.519 42.7146C216.718 42.8085 216.938 42.8529 217.158 42.8439Z" fill="white"/>
<path d="M221.58 42.2634L224.134 38.1571H225.069V43.4617H224.255V39.3584L221.714 43.4648H220.76V38.1602H221.577L221.58 42.2634Z" fill="white"/>
<path d="M226.095 43.4648V42.7065H226.288C226.428 42.7101 226.565 42.6767 226.687 42.6098C226.806 42.5285 226.895 42.4116 226.943 42.2759C227.021 42.0594 227.072 41.8341 227.096 41.6051C227.13 41.318 227.155 40.9529 227.174 40.5067L227.267 38.1571H230.807V43.4617H229.99V38.9185H228.044L227.96 40.8125C227.947 41.1974 227.908 41.581 227.844 41.9608C227.8 42.2496 227.71 42.5296 227.579 42.7908C227.473 43.0016 227.309 43.1772 227.105 43.2963C226.88 43.4161 226.627 43.4742 226.372 43.4648H226.095Z" fill="white"/>
<path d="M234.52 43.5772C234.058 43.5884 233.601 43.4706 233.201 43.237C232.83 43.0084 232.533 42.6766 232.347 42.2822C232.14 41.8348 232.039 41.3459 232.051 40.8531C232.04 40.3574 232.141 39.8656 232.347 39.4146C232.533 39.0154 232.828 38.6768 233.198 38.438C233.57 38.2004 234.004 38.0787 234.445 38.0885C234.723 38.0892 234.999 38.1356 235.262 38.2258C235.537 38.3218 235.788 38.475 235.998 38.6751C236.235 38.9034 236.417 39.1831 236.528 39.4926C236.67 39.8931 236.736 40.3162 236.725 40.7408V41.0871H232.628V40.3819H235.889C235.894 40.1044 235.833 39.8296 235.711 39.58C235.598 39.3525 235.424 39.1605 235.209 39.0246C234.977 38.8853 234.71 38.8149 234.439 38.8218C234.141 38.8134 233.847 38.8972 233.597 39.062C233.365 39.2186 233.177 39.4339 233.055 39.6861C232.928 39.9408 232.862 40.222 232.865 40.5067V40.9779C232.854 41.3287 232.925 41.6771 233.073 41.9951C233.202 42.2563 233.405 42.4734 233.657 42.6192C233.877 42.7361 234.119 42.8072 234.368 42.8281C234.616 42.849 234.867 42.8194 235.103 42.7409C235.272 42.6837 235.427 42.5899 235.556 42.4663C235.686 42.3355 235.786 42.1779 235.849 42.0045L236.634 42.226C236.555 42.4909 236.411 42.732 236.217 42.9281C236.012 43.1358 235.766 43.2966 235.493 43.3993C235.183 43.5188 234.853 43.5792 234.52 43.5772Z" fill="white"/>
<path d="M237.464 38.9632V38.1571H241.773V38.9632H240.033V43.7768H239.219V38.9632H237.464Z" fill="white"/>
<path d="M243.666 40.192H245.188C245.706 40.1535 246.219 40.3341 246.613 40.6942C246.774 40.8572 246.901 41.0544 246.986 41.2729C247.071 41.4915 247.112 41.7265 247.105 41.9628C247.11 42.2833 247.034 42.5994 246.884 42.8779C246.732 43.1594 246.507 43.3887 246.235 43.5387C245.91 43.7101 245.55 43.793 245.188 43.7798H242.961V38.1635H243.778V42.9803H245.188C245.474 42.9959 245.756 42.9022 245.983 42.716C246.082 42.6345 246.163 42.5292 246.217 42.4087C246.271 42.2881 246.298 42.1557 246.295 42.0223C246.298 41.884 246.272 41.7466 246.218 41.6206C246.164 41.4947 246.083 41.3834 245.983 41.2954C245.761 41.1008 245.479 40.9997 245.191 41.0113H243.669L243.666 40.192ZM247.95 43.7765V38.1602H248.764V43.7765H247.95Z" fill="white"/>
</svg>
